<svg width="128" height="20" xmlns="http://www.w3.org/2000/svg" xmlns:xlink="http://www.w3.org/1999/xlink"><defs><path id="a" d="M.183.177h12.3v19.51H.183z"/><path id="c" d="M.25.172h8.189v15.866H.249z"/></defs><g fill="none" fill-rule="evenodd"><path fill="#231F20" d="M0 0v3.465h4.021V19h3.992V3.465H12V0zm18.835 4v6.205h-3.67V4H12v15h3.165v-6.013h3.67V19H22V4zM23 4v15h9v-2.816h-5.53v-3.76h3.809V9.99h-3.81V6.701H32V4z"/><g transform="translate(38)"><mask id="b" fill="#fff"><use xlink:href="#a"/></mask><path d="M7.8 5.013c0-.96-.389-1.57-1.412-1.57H4.145v5.326h2.08c1.023 0 1.58-.556 1.58-1.717V5.033l-.005-.02zm2.33 14.675c-1.605 0-2.215-1.167-2.215-2.97v-3.174c0-1.01-.48-1.893-1.633-1.893H4.145v7.92H.183V.177h6.656c2.993 0 4.803 1.807 4.803 4.599v2.12c.093 1.56-.938 2.947-2.401 3.23 1.438.32 2.466 1.656 2.464 3.201v3.16a2.52 2.52 0 0 0 .778 1.979v1.222h-2.354z" fill="#ED1C24" mask="url(#b)"/></g><path fill="#ED1C24" d="M51.597 19.571V3.705h8.41v2.857h-5.168v3.479h3.559v2.574h-3.559v3.978h5.168v2.978zM65.718 8.112l-1.158 5.79h2.22l-1.062-5.79zm2.132 11.46l-.634-3.145H64.09l-.634 3.144H60.42l3.535-15.866h3.626l3.511 15.866H67.85zm4.126-.001V3.705h3.242v12.933h4.966v2.928h-8.208z"/><path d="M93.229 6.093c0-1.545-.692-2.443-2.22-2.443h-1.882v12.453h1.883c1.522 0 2.219-.903 2.219-2.448V6.083v.01zm-1.921 13.478H85.16V.177h6.148c3.842 0 5.873 2.59 5.873 5.825v7.961c.01 3.276-2.05 5.608-5.873 5.608zm7.737 0V3.705h8.41v2.857h-5.168v3.479h3.55v2.574h-3.56v3.978h5.168v2.978zm14.121-11.459l-1.158 5.79h2.22l-1.062-5.79zm2.127 11.46l-.634-3.145h-3.126l-.634 3.144h-3.036l3.535-15.866h3.626l3.511 15.866h-3.242z" fill="#231F20"/><g transform="translate(119.17 3.534)"><mask id="d" fill="#fff"><use xlink:href="#c"/></mask><path fill="#231F20" mask="url(#d)" d="M.25 16.038V.172h3.228v12.933h4.961v2.928H.249z"/></g></g></svg>