<svg width="227" height="109" xmlns="http://www.w3.org/2000/svg"><g fill="none" fill-rule="evenodd"><rect fill="#C6DBE7" x="120" width="40" height="40" rx="1"/><g fill="#6BC0E8"><path d="M187 69h5.556v5.556H187zM203.667 69h5.556v5.556h-5.556zM187 85.667h5.556v5.556H187zM203.667 85.667h5.556v5.556h-5.556zM187 103.444h5.556V109H187zM203.667 103.444h5.556V109h-5.556zM221.444 69H227v5.556h-5.556zM221.444 85.667H227v5.556h-5.556zM221.444 103.444H227V109h-5.556z"/></g><path d="M.8 45h99.4a.8.8 0 0 1 .8.8v21.4a.8.8 0 0 1-.8.8H.8a.8.8 0 0 1-.8-.8V45.8a.8.8 0 0 1 .8-.8z" fill="#6BC0E8"/></g></svg>