<svg xmlns="http://www.w3.org/2000/svg" xmlns:xlink="http://www.w3.org/1999/xlink" width="24" height="24"><defs><path id="a" d="M0 0h24v24H0z"/></defs><g fill="none" fill-rule="evenodd"><mask id="b" fill="#fff"><use xlink:href="#a"/></mask><path d="M11.638 10.971a.685.685 0 0 1-.685.687H6.846a.685.685 0 0 1-.685-.687V6.858c0-.38.306-.687.685-.687h4.107c.378 0 .685.308.685.687v4.113zm11.637 6.858h-5.476V1.37A1.37 1.37 0 0 0 16.429 0H1.37A1.37 1.37 0 0 0 0 1.371v15.087c0 .757.613 1.37 1.37 1.37h16.428v5.486c0 .378.307.686.685.686h4.792a.686.686 0 0 0 .684-.686v-4.8a.685.685 0 0 0-.684-.685zM127.5 8.799c2.112 0 3.285-1.128 3.285-2.844V5.91c0-1.857-1.197-2.82-3.238-2.82h-2.98v5.71h2.933zM121.846.598h5.936c1.878 0 3.403.564 4.388 1.551.868.87 1.361 2.116 1.361 3.62v.093c0 2.539-1.408 4.113-3.402 4.818L134 17.05h-3.143l-3.497-5.829c-.047.024-.117.024-.163.024h-2.629v5.804h-2.722V.597zm-7.527 8.32v-.165c0-3.525-1.877-5.898-4.482-5.898-2.58 0-4.435 2.326-4.435 5.874v.166c0 3.524 1.901 5.898 4.482 5.898 2.58 0 4.435-2.327 4.435-5.875zm-11.732.047v-.236c0-4.888 3.003-8.39 7.297-8.39 4.27 0 7.25 3.48 7.25 8.344v.235c0 4.888-3.003 8.39-7.297 8.39-4.27 0-7.25-3.478-7.25-8.343zm-10.044.94h-3.308v4.7h3.425c1.877 0 3.05-.823 3.05-2.327v-.047c0-1.433-1.103-2.326-3.167-2.326zm2.463-4.677c0-1.387-1.008-2.186-2.768-2.186h-3.003v4.56h2.839c1.783 0 2.932-.799 2.932-2.327v-.047zM86.56.597h5.866c1.783 0 3.284.493 4.2 1.41.727.73 1.102 1.645 1.102 2.773v.072c0 2.02-1.173 3.078-2.416 3.689 1.806.634 3.12 1.715 3.12 3.924v.094c0 2.891-2.346 4.49-5.842 4.49h-6.03V.596zM74.48 8.8c2.111 0 3.284-1.13 3.284-2.845V5.91c0-1.857-1.196-2.82-3.238-2.82h-2.98v5.71h2.933zM68.824.597h5.936c1.877 0 3.402.564 4.388 1.551.868.87 1.36 2.116 1.36 3.62v.093c0 2.539-1.408 4.113-3.401 4.818l3.87 6.37h-3.143l-3.496-5.829c-.047.024-.118.024-.165.024h-2.628v5.804h-2.72V.597zM58.84 10.75l-2.345-6.604-2.346 6.604h4.691zM55.227.503h2.627l6.03 16.545h-2.838l-1.361-3.877h-6.382l-1.36 3.877h-2.746L55.227.503zm-22.76.094h2.723v6.91h6.452V.598h2.722v16.451h-2.722v-7.003H35.19v7.003h-2.722V.597z" fill="#3B4255" mask="url(#b)"/></g></svg>