<svg width="190" height="34" xmlns="http://www.w3.org/2000/svg" xmlns:xlink="http://www.w3.org/1999/xlink"><defs><path id="a" d="M0 0h189.87v33.95H0z"/></defs><g fill="none" fill-rule="evenodd"><mask id="b" fill="#fff"><use xlink:href="#a"/></mask><path d="M16.49 15.52a.97.97 0 0 1-.97.97H9.7a.97.97 0 0 1-.97-.97V9.7a.97.97 0 0 1 .97-.97h5.82a.97.97 0 0 1 .97.97v5.82zm16.49 9.7h-7.76V1.94A1.94 1.94 0 0 0 23.28 0H1.94A1.94 1.94 0 0 0 0 1.94v21.34a1.94 1.94 0 0 0 1.94 1.94h23.28v7.76c0 .535.433.97.97.97h6.79a.97.97 0 0 0 .97-.97v-6.79a.97.97 0 0 0-.97-.97zM180.66 12.448c2.993 0 4.655-1.597 4.655-4.024v-.065c0-2.627-1.696-3.99-4.588-3.99h-4.222v8.079h4.155zM172.65.844h8.411c2.66 0 4.821.799 6.217 2.195 1.23 1.23 1.93 2.993 1.93 5.12v.132c0 3.59-1.996 5.818-4.822 6.816l5.485 9.009h-4.454l-4.954-8.244c-.067.033-.166.033-.232.033h-3.724v8.21h-3.857V.845zm-10.666 11.77v-.233c0-4.987-2.66-8.344-6.35-8.344-3.657 0-6.284 3.29-6.284 8.31v.234c0 4.986 2.693 8.344 6.35 8.344 3.657 0 6.284-3.292 6.284-8.311zm-16.623.066v-.333c0-6.915 4.255-11.868 10.34-11.868 6.05 0 10.272 4.92 10.272 11.803v.332c0 6.914-4.255 11.868-10.339 11.868-6.05 0-10.273-4.92-10.273-11.802zm-14.232 1.33h-4.688v6.649h4.854c2.66 0 4.322-1.164 4.322-3.292V17.3c0-2.028-1.563-3.291-4.488-3.291zm3.49-6.616c0-1.962-1.429-3.092-3.922-3.092h-4.256v6.449h4.023c2.527 0 4.155-1.13 4.155-3.291v-.066zM122.65.844h8.312c2.527 0 4.654.698 5.95 1.995 1.031 1.032 1.563 2.327 1.563 3.923v.1c0 2.859-1.662 4.355-3.424 5.22 2.56.897 4.421 2.426 4.421 5.55v.134c0 4.09-3.324 6.35-8.277 6.35h-8.545V.844zm-17.117 11.604c2.992 0 4.654-1.597 4.654-4.024v-.065c0-2.627-1.695-3.99-4.588-3.99h-4.222v8.079h4.156zM97.521.844h8.411c2.66 0 4.82.799 6.217 2.195 1.23 1.23 1.928 2.993 1.928 5.12v.132c0 3.59-1.995 5.818-4.82 6.816l5.485 9.009h-4.455l-4.953-8.244c-.067.033-.167.033-.234.033h-3.723v8.21h-3.856V.845zM83.372 15.207l-3.324-9.342-3.324 9.342h6.648zM78.253.71h3.723l8.544 23.405h-4.022L84.57 18.63h-9.043L73.6 24.116h-3.89L78.253.71zM46.005.844h3.857v9.776h9.142V.844h3.857v23.272h-3.857v-9.907h-9.142v9.907h-3.857V.844z" fill="#3B4255" mask="url(#b)"/></g></svg>